<?xml version="1.0" encoding="UTF-8"?>
<svg version="1.1" xmlns="http://www.w3.org/2000/svg" width="131" height="114">
<path d="M0 0 C2.33725917 0.83005867 4.67645026 1.65450215 7.01579285 2.47866821 C8.56558149 3.0250559 10.11475122 3.5732024 11.6632843 4.12313843 C18.21297795 6.44525413 24.80630058 8.609207 31.4375 10.6875 C32.35047852 10.97439697 33.26345703 11.26129395 34.20410156 11.55688477 C36.21827597 12.18736207 38.23392967 12.81311181 40.25 13.4375 C40.25 14.7575 40.25 16.0775 40.25 17.4375 C38.6 18.0975 36.95 18.7575 35.25 19.4375 C35.35828125 20.85675781 35.35828125 20.85675781 35.46875 22.3046875 C36.21387818 32.69663553 36.35849888 43.02160724 36.25 53.4375 C33.91705225 53.47991723 31.58297433 53.47842937 29.25 53.4375 C27.42883997 51.61633997 28.1176492 49.13078236 28.11328125 46.7109375 C28.11714844 45.96070313 28.12101562 45.21046875 28.125 44.4375 C28.12113281 43.68726563 28.11726563 42.93703125 28.11328125 42.1640625 C28.12338947 36.56411053 28.12338947 36.56411053 29.25 35.4375 C29.48527773 33.08762738 29.66386417 30.73193961 29.8125 28.375 C29.93818359 26.43947266 29.93818359 26.43947266 30.06640625 24.46484375 C30.12699219 23.46582031 30.18757813 22.46679688 30.25 21.4375 C29.60675781 21.67984375 28.96351562 21.9221875 28.30078125 22.171875 C19.89386166 25.28999068 11.37080253 27.90933258 2.78125 30.47265625 C-3.97008911 32.46454842 -3.97008911 32.46454842 -10.5 35.0625 C-20.07996289 39.11556122 -26.007128 38.19478762 -35.75 34.4375 C-36.8946875 33.94378906 -38.039375 33.45007812 -39.21875 32.94140625 C-42.65265008 31.47895987 -46.08343016 30.23776482 -49.625 29.0625 C-50.26066895 28.85117432 -50.89633789 28.63984863 -51.55126953 28.42211914 C-56.54210494 26.78334641 -61.57481109 25.31830993 -66.625 23.875 C-72.59372273 22.16687008 -78.16006057 20.18165208 -83.75 17.4375 C-83.75 16.1175 -83.75 14.7975 -83.75 13.4375 C-82.09924316 12.88724772 -80.44848379 12.33700307 -78.79771423 11.78678894 C-77.31920893 11.29391941 -75.84074536 10.80092468 -74.36231995 10.30781555 C-70.26935804 8.94287458 -66.17566678 7.58019245 -62.08056641 6.22167969 C-55.04899654 3.8868877 -48.02037136 1.55301408 -41.03515625 -0.91796875 C-40.09824951 -1.24531006 -39.16134277 -1.57265137 -38.19604492 -1.90991211 C-36.54976148 -2.48785437 -34.90749839 -3.07746145 -33.27075195 -3.68188477 C-21.20910454 -7.87960915 -11.4877694 -4.17592278 0 0 Z " fill="#074AA6" transform="translate(88.75,13.5625)"/>
<path d="M0 0 C6.30905856 0.72248896 11.84095071 3.15081103 17.66015625 5.56054688 C25.95667374 8.79739498 33.2602275 9.28197047 41.5625 5.6875 C42.65433594 5.23375 43.74617188 4.78 44.87109375 4.3125 C45.90363281 3.879375 46.93617187 3.44625 48 3 C49.70092156 2.37527128 51.40849441 1.76804173 53.125 1.1875 C53.80820313 0.95417969 54.49140625 0.72085938 55.1953125 0.48046875 C57 0 57 0 60 0 C60.90347142 25.17905349 60.90347142 25.17905349 52.6875 35.375 C46.51526191 41.91651729 39.21838681 45.03138365 30.25 45.375 C24.92791793 45.30880495 20.93081654 44.16679194 16.15625 41.875 C13.77009538 40.74932213 13.77009538 40.74932213 10 41 C9.60296875 41.87785156 9.2059375 42.75570312 8.796875 43.66015625 C6.936553 47.11792866 4.95936507 49.60612936 2.25 52.4375 C1.43015625 53.32308594 0.6103125 54.20867187 -0.234375 55.12109375 C-3 57 -3 57 -6.703125 56.8984375 C-10 56 -10 56 -12 54.1875 C-13.22026375 51.51817306 -12.96010168 50.71548489 -12 48 C-10.11180795 45.84614705 -8.23550379 43.86255503 -6.1875 41.875 C-5.65318359 41.33746094 -5.11886719 40.79992187 -4.56835938 40.24609375 C-1.89810782 37.61197106 0.44780927 35.39335326 4 34 C3.51117329 30.87150905 2.74882144 28.42587757 1.46875 25.5 C-0.49014797 20.35325333 -0.3338508 15.44124759 -0.1875 10 C-0.16719727 8.55173828 -0.16719727 8.55173828 -0.14648438 7.07421875 C-0.11145458 4.71554575 -0.06234084 2.35808229 0 0 Z M12 21 C13.01690645 26.08453226 13.41810172 27.50764918 17 31 C22.60543538 34.39857106 27.49627044 35.82587042 34 35 C40.04060282 33.07020439 44.67454726 29.42905352 48 24 C48 23.01 48 22.02 48 21 C36.12 21 24.24 21 12 21 Z " fill="#D09FE2" transform="translate(37,44)"/>
<path d="M0 0 C5.80004239 8.93410038 4.0352082 21.07108028 2.3125 30.9375 C-1.12090188 43.10368493 -8.32575297 53.75772258 -19.125 60.4375 C-20.73551311 61.31867719 -22.35963586 62.17572384 -24 63 C-24.96099609 63.49113281 -24.96099609 63.49113281 -25.94140625 63.9921875 C-36.02276146 68.72839465 -50.5143962 68.67750493 -61 65 C-67.95146613 62.18962155 -67.95146613 62.18962155 -71 60 C-71.78125 57.8359375 -71.78125 57.8359375 -72 56 C-71.34 56 -70.68 56 -70 56 C-70 55.34 -70 54.68 -70 54 C-67.27947036 51.84888354 -65.0741688 50.1978732 -61.625 49.5625 C-59 50 -59 50 -55.4375 51.5 C-47.01022039 54.81071699 -38.54958547 53.4638097 -30.3515625 50.15625 C-27.55960072 48.78345816 -25.30473734 47.08169824 -23 45 C-22.34 45 -21.68 45 -21 45 C-21 44.34 -21 43.68 -21 43 C-20.34 43 -19.68 43 -19 43 C-19 42.34 -19 41.68 -19 41 C-18.34 41 -17.68 41 -17 41 C-16.71382812 40.27941406 -16.42765625 39.55882812 -16.1328125 38.81640625 C-15.42012143 37.04450881 -14.68836096 35.28004557 -13.9296875 33.52734375 C-9.70504999 23.15351165 -10.34288078 13.72337399 -13 3 C-11.40084119 2.30093058 -9.79544955 1.61610532 -8.1875 0.9375 C-7.29417969 0.55464844 -6.40085937 0.17179687 -5.48046875 -0.22265625 C-3 -1 -3 -1 0 0 Z " fill="#0949A3" transform="translate(112,40)"/>
<path d="M0 0 C7.84517766 1.12073967 7.84517766 1.12073967 11.05078125 2.41015625 C11.74397461 2.67852295 12.43716797 2.94688965 13.15136719 3.22338867 C13.86454102 3.50029541 14.57771484 3.77720215 15.3125 4.0625 C26.34218544 8.08438079 32.93533083 7.91640007 43.921875 3.2890625 C48.72095227 1.27929664 52.7410321 -0.30935105 58 0 C58.13501894 2.43934225 58.23403897 4.87124104 58.3125 7.3125 C58.35439453 8.00279297 58.39628906 8.69308594 58.43945312 9.40429688 C58.48828125 11.42578125 58.48828125 11.42578125 58 15 C51.75327364 20.28486019 41.8577424 20.49767857 34 21 C32.80697266 21.08121094 32.80697266 21.08121094 31.58984375 21.1640625 C25.30684221 21.37770397 19.25624426 20.57707399 13.0625 19.625 C12.23306885 19.49899414 11.4036377 19.37298828 10.54907227 19.24316406 C9.76072998 19.11393555 8.9723877 18.98470703 8.16015625 18.8515625 C7.45511963 18.73635254 6.75008301 18.62114258 6.02368164 18.50244141 C4 18 4 18 0 16 C0 10.72 0 5.44 0 0 Z " fill="#0347A5" transform="translate(38,45)"/>
<path d="M0 0 C1.8161982 0.42188459 3.62794073 0.86299165 5.4375 1.3125 C6.95150391 1.67794922 6.95150391 1.67794922 8.49609375 2.05078125 C9.32238281 2.36402344 10.14867187 2.67726562 11 3 C12 6 12 6 11.0625 8.8125 C8.31108405 17.66979792 9.44559479 26.65487472 13 35 C12.22855708 39.87960881 9.62575808 43.71955221 6 47 C3.28035772 45.98158076 2.15253161 45.24270222 0.5859375 42.75 C-5.00059156 30.06317273 -6.48605461 18.52166636 -3 5 C-1.375 1.8125 -1.375 1.8125 0 0 Z " fill="#0546A3" transform="translate(23,39)"/>
<path d="M0 0 C1.65 0 3.3 0 5 0 C3.68 0.33 2.36 0.66 1 1 C1 4.96 1 8.92 1 13 C1.99 13 2.98 13 4 13 C4 13.66 4 14.32 4 15 C4.804375 15.144375 5.60875 15.28875 6.4375 15.4375 C9 16 9 16 10 17 C13.42222287 17.38966117 16.87236578 17.4756353 20.3125 17.625 C21.31039551 17.67003662 22.30829102 17.71507324 23.33642578 17.76147461 C30.31913646 18.03449394 37.06439416 17.95108519 44 17 C44.66 15.35 45.32 13.7 46 12 C47.65 12 49.3 12 51 12 C51 12.66 51 13.32 51 14 C52.98 14 54.96 14 57 14 C57 10.37 57 6.74 57 3 C54.03 3 51.06 3 48 3 C48 3.66 48 4.32 48 5 C47.34 5 46.68 5 46 5 C45.67 5.99 45.34 6.98 45 8 C43.02 8 41.04 8 39 8 C38.67 8.66 38.34 9.32 38 10 C33.71 9.67 29.42 9.34 25 9 C25 8.67 25 8.34 25 8 C26.8253125 7.9071875 26.8253125 7.9071875 28.6875 7.8125 C34.1283008 7.22709738 38.84919588 5.31443148 43.88671875 3.25390625 C48.71096486 1.31089119 52.73963056 -0.3094335 58 0 C58.13501894 2.43934225 58.23403897 4.87124104 58.3125 7.3125 C58.35439453 8.00279297 58.39628906 8.69308594 58.43945312 9.40429688 C58.48828125 11.42578125 58.48828125 11.42578125 58 15 C51.75327364 20.28486019 41.8577424 20.49767857 34 21 C32.80697266 21.08121094 32.80697266 21.08121094 31.58984375 21.1640625 C25.30684221 21.37770397 19.25624426 20.57707399 13.0625 19.625 C12.23306885 19.49899414 11.4036377 19.37298828 10.54907227 19.24316406 C9.76072998 19.11393555 8.9723877 18.98470703 8.16015625 18.8515625 C7.45511963 18.73635254 6.75008301 18.62114258 6.02368164 18.50244141 C4 18 4 18 0 16 C0 10.72 0 5.44 0 0 Z " fill="#184793" transform="translate(38,45)"/>
<path d="M0 0 C1.8161982 0.42188459 3.62794073 0.86299165 5.4375 1.3125 C6.95150391 1.67794922 6.95150391 1.67794922 8.49609375 2.05078125 C9.32238281 2.36402344 10.14867187 2.67726562 11 3 C12 6 12 6 11.0625 8.8125 C8.31108405 17.66979792 9.44559479 26.65487472 13 35 C12.22855708 39.87960881 9.62575808 43.71955221 6 47 C3.28035772 45.98158076 2.15253161 45.24270222 0.5859375 42.75 C-5.00059156 30.06317273 -6.48605461 18.52166636 -3 5 C-1.375 1.8125 -1.375 1.8125 0 0 Z M1 3 C0.67 3.99 0.34 4.98 0 6 C-0.66 6 -1.32 6 -2 6 C-1.979375 6.99 -1.95875 7.98 -1.9375 9 C-1.92164624 11.6634314 -2.14934815 13.83634962 -2.625 16.5 C-3.55793605 22.9410927 -2.00469157 29.62311464 -1 36 C-0.34 36 0.32 36 1 36 C1 37.32 1 38.64 1 40 C1.66 40 2.32 40 3 40 C3 40.99 3 41.98 3 43 C6.29075996 42.62095792 6.29075996 42.62095792 9 41 C9.1000176 39.27322556 9.12966845 37.5421623 9.125 35.8125 C9.12757812 34.87019531 9.13015625 33.92789063 9.1328125 32.95703125 C9.06816145 30.02037824 9.06816145 30.02037824 8.49609375 27.25390625 C7.82648932 22.86193385 7.8940881 18.55969241 7.9375 14.125 C7.94201172 13.24585938 7.94652344 12.36671875 7.95117188 11.4609375 C7.96287663 9.30726197 7.98080931 7.15362183 8 5 C7.01 5 6.02 5 5 5 C5 4.34 5 3.68 5 3 C3.68 3 2.36 3 1 3 Z " fill="#42659D" transform="translate(23,39)"/>
<path d="M0 0 C0.99 0.33 1.98 0.66 3 1 C2.34 1 1.68 1 1 1 C1.0721875 1.94617187 1.144375 2.89234375 1.21875 3.8671875 C1.96387818 14.25913553 2.10849888 24.58410724 2 35 C-0.33294775 35.04241723 -2.66702567 35.04092937 -5 35 C-6.82116003 33.17883997 -6.1323508 30.69328236 -6.13671875 28.2734375 C-6.13285156 27.52320312 -6.12898438 26.77296875 -6.125 26 C-6.12886719 25.24976562 -6.13273437 24.49953125 -6.13671875 23.7265625 C-6.12661053 18.12661053 -6.12661053 18.12661053 -5 17 C-4.92686433 14.46950598 -4.90752473 11.96695163 -4.9375 9.4375 C-4.94201172 8.72658203 -4.94652344 8.01566406 -4.95117188 7.28320312 C-4.96299136 5.52209987 -4.98092737 3.76103964 -5 2 C-4.34 2 -3.68 2 -3 2 C-2.67 6.62 -2.34 11.24 -2 16 C-1.67 16 -1.34 16 -1 16 C-0.67 10.72 -0.34 5.44 0 0 Z " fill="#4C6DA7" transform="translate(123,32)"/>
<path d="M0 0 C8.45182612 0.37843998 15.23931426 2.70353317 23 6 C23 6.33 23 6.66 23 7 C18.71 7 14.42 7 10 7 C10 8.32 10 9.64 10 11 C8.68 11 7.36 11 6 11 C5.67 11.99 5.34 12.98 5 14 C4.34 14 3.68 14 3 14 C3 13.34 3 12.68 3 12 C2.01 12 1.02 12 0 12 C0 8.04 0 4.08 0 0 Z " fill="#0348A5" transform="translate(39,46)"/>
<path d="M0 0 C0.99 0 1.98 0 3 0 C3.88459704 24.65303903 3.88459704 24.65303903 -1 31 C-3.140625 32.23828125 -3.140625 32.23828125 -5 33 C-5.66 32.01 -6.32 31.02 -7 30 C-6.01 29.67 -5.02 29.34 -4 29 C-3.34 29.33 -2.68 29.66 -2 30 C-2.66 28.35 -3.32 26.7 -4 25 C-5.32 25 -6.64 25 -8 25 C-8.33 25.99 -8.66 26.98 -9 28 C-11.5625 29.1875 -11.5625 29.1875 -14 30 C-12.35 27.03 -10.7 24.06 -9 21 C-9.99 20.67 -10.98 20.34 -12 20 C-11.24074219 19.79503906 -10.48148437 19.59007813 -9.69921875 19.37890625 C-8.70535156 19.10949219 -7.71148437 18.84007813 -6.6875 18.5625 C-5.70136719 18.29566406 -4.71523437 18.02882813 -3.69921875 17.75390625 C-1.78482474 17.21920575 0.11433615 16.62855462 2 16 C2 11.05 2 6.1 2 1 C1.34 0.67 0.68 0.34 0 0 Z " fill="#C7A8DE" transform="translate(94,44)"/>
<path d="M0 0 C0.99 0.33 1.98 0.66 3 1 C2.79375 1.78375 2.5875 2.5675 2.375 3.375 C2.25125 4.24125 2.1275 5.1075 2 6 C6.56427205 10.56427205 14.10224382 11.06266495 20.30078125 11.31640625 C21.27724609 11.35830078 22.25371094 11.40019531 23.25976562 11.44335938 C24.77086914 11.50233398 24.77086914 11.50233398 26.3125 11.5625 C27.85260742 11.62727539 27.85260742 11.62727539 29.42382812 11.69335938 C31.94909569 11.79906825 34.47445562 11.90116468 37 12 C37 12.33 37 12.66 37 13 C23.50550735 15.57037955 11.26619394 14.29709895 -1.03125 8.4140625 C-3 7 -3 7 -3.78125 4.8359375 C-3.8534375 4.23007813 -3.925625 3.62421875 -4 3 C-3.34 3 -2.68 3 -2 3 C-2 2.34 -2 1.68 -2 1 C-1.34 0.67 -0.68 0.34 0 0 Z " fill="#4066A4" transform="translate(44,93)"/>
<path d="M0 0 C1.65 0 3.3 0 5 0 C3.68 0.33 2.36 0.66 1 1 C1 4.96 1 8.92 1 13 C1.99 13 2.98 13 4 13 C4 13.66 4 14.32 4 15 C4.804375 15.144375 5.60875 15.28875 6.4375 15.4375 C9 16 9 16 10 17 C11.8499996 17.228226 13.70765514 17.39504938 15.56640625 17.53515625 C17.2534668 17.66567383 17.2534668 17.66567383 18.97460938 17.79882812 C20.75061523 17.9293457 20.75061523 17.9293457 22.5625 18.0625 C23.75037109 18.15337891 24.93824219 18.24425781 26.16210938 18.33789062 C29.10778905 18.56266136 32.05372674 18.78317196 35 19 C34.67 19.66 34.34 20.32 34 21 C26.88543129 21.43167046 20.07801729 20.7186484 13.0625 19.625 C12.23387451 19.49891357 11.40524902 19.37282715 10.55151367 19.24291992 C9.76236572 19.11377197 8.97321777 18.98462402 8.16015625 18.8515625 C7.45511963 18.73635254 6.75008301 18.62114258 6.02368164 18.50244141 C4 18 4 18 0 16 C0 10.72 0 5.44 0 0 Z " fill="#365A97" transform="translate(38,45)"/>
<path d="M0 0 C-0.99 0.495 -0.99 0.495 -2 1 C0.38957269 4.24299151 2.2047869 6.50902342 6 8 C1.35348573 9.46133311 -1.39346788 8.39260421 -5.8125 6.5625 C-6.97394531 6.08941406 -8.13539062 5.61632813 -9.33203125 5.12890625 C-10.21246094 4.75636719 -11.09289062 4.38382813 -12 4 C-12 2.68 -12 1.36 -12 0 C-7.91556885 -1.53166168 -4.20544343 -0.63081652 0 0 Z " fill="#0D4396" transform="translate(17,27)"/>
<path d="M0 0 C2.31 0.66 4.62 1.32 7 2 C6.34 2.66 5.68 3.32 5 4 C3.68 4 2.36 4 1 4 C0.67 4.66 0.34 5.32 0 6 C-0.66 6 -1.32 6 -2 6 C-1.814375 6.99 -1.62875 7.98 -1.4375 9 C-0.95656162 12.32045125 -1.28839705 15.15002677 -1.80859375 18.46875 C-2.24800893 24.2797916 -1.4907592 30.20149135 -1 36 C-4.95189775 32.04810225 -4.90931053 25.42835918 -5.25 20.0625 C-5.03867967 13.13119324 -4.28717196 5.65127213 0 0 Z " fill="#4B6EA4" transform="translate(23,39)"/>
<path d="M0 0 C6.11865297 9.42487247 3.96105402 22.63442876 2 33 C1.67 33 1.34 33 1 33 C0.67 23.76 0.34 14.52 0 5 C-2.64 4.01 -5.28 3.02 -8 2 C-7 0 -7 0 -5.125 -0.6875 C-3 -1 -3 -1 0 0 Z " fill="#5173A3" transform="translate(112,40)"/>
<path d="M0 0 C0.84755859 0.09345703 1.69511719 0.18691406 2.56835938 0.28320312 C3.44943359 0.38697266 4.33050781 0.49074219 5.23828125 0.59765625 C6.57729492 0.74750977 6.57729492 0.74750977 7.94335938 0.90039062 C10.14656346 1.14780927 12.34889906 1.40127904 14.55078125 1.66015625 C14.55078125 1.99015625 14.55078125 2.32015625 14.55078125 2.66015625 C13.06964844 2.62535156 13.06964844 2.62535156 11.55859375 2.58984375 C9.63660156 2.56277344 9.63660156 2.56277344 7.67578125 2.53515625 C6.39960937 2.51195312 5.1234375 2.48875 3.80859375 2.46484375 C0.46484787 2.30374101 0.46484787 2.30374101 -1.44921875 4.66015625 C-2.71765625 5.15515625 -2.71765625 5.15515625 -4.01171875 5.66015625 C-6.59763316 6.40885739 -6.59763316 6.40885739 -7.44921875 8.66015625 C-5.79921875 8.99015625 -4.14921875 9.32015625 -2.44921875 9.66015625 C-2.44921875 9.99015625 -2.44921875 10.32015625 -2.44921875 10.66015625 C-5.19921875 10.91015625 -5.19921875 10.91015625 -8.44921875 10.66015625 C-10.82421875 8.66015625 -10.82421875 8.66015625 -12.44921875 6.66015625 C-12.11921875 6.00015625 -11.78921875 5.34015625 -11.44921875 4.66015625 C-10.12921875 4.66015625 -8.80921875 4.66015625 -7.44921875 4.66015625 C-7.44921875 3.34015625 -7.44921875 2.02015625 -7.44921875 0.66015625 C-4.42059919 -0.3493836 -3.08836884 -0.35236423 0 0 Z " fill="#074499" transform="translate(56.44921875,52.33984375)"/>
<path d="M0 0 C0 0.33 0 0.66 0 1 C-1.19238281 1.04898437 -2.38476562 1.09796875 -3.61328125 1.1484375 C-5.17971068 1.22347604 -6.74611579 1.2990234 -8.3125 1.375 C-9.09818359 1.4059375 -9.88386719 1.436875 -10.69335938 1.46875 C-11.8293457 1.52675781 -11.8293457 1.52675781 -12.98828125 1.5859375 C-13.68477783 1.6173584 -14.38127441 1.6487793 -15.09887695 1.68115234 C-17.32532739 1.92118253 -17.32532739 1.92118253 -20 4 C-22.04296875 4.4140625 -22.04296875 4.4140625 -24.1875 4.625 C-25.445625 4.74875 -26.70375 4.8725 -28 5 C-28 4.01 -28 3.02 -28 2 C-18.39853735 -1.69540831 -9.86629991 -4.15423154 0 0 Z " fill="#3E669E" transform="translate(78,10)"/>
<path d="M0 0 C0.99 0.33 1.98 0.66 3 1 C2.48852913 5.20979867 0.15511562 7.31050432 -2.75 10.25 C-3.61109375 11.14203125 -4.4721875 12.0340625 -5.359375 12.953125 C-8 15 -8 15 -10.828125 15.296875 C-11.54484375 15.19890625 -12.2615625 15.1009375 -13 15 C-12.195625 14.46375 -11.39125 13.9275 -10.5625 13.375 C-7.53491576 10.56894631 -7.27489191 9.03174806 -7 5 C-6.34 5 -5.68 5 -5 5 C-3.29319053 3.37446717 -1.62339805 1.70884005 0 0 Z " fill="#CDA1DD" transform="translate(42,86)"/>
<path d="M0 0 C0 0.99 0 1.98 0 3 C-2.97 3 -5.94 3 -9 3 C-9 3.66 -9 4.32 -9 5 C-9.66 5 -10.32 5 -11 5 C-11.33 5.99 -11.66 6.98 -12 8 C-13.98 8 -15.96 8 -18 8 C-18.33 8.66 -18.66 9.32 -19 10 C-23.29 9.67 -27.58 9.34 -32 9 C-32 8.67 -32 8.34 -32 8 C-30.1746875 7.9071875 -30.1746875 7.9071875 -28.3125 7.8125 C-22.8716992 7.22709738 -18.15080412 5.31443148 -13.11328125 3.25390625 C-8.55147202 1.41659036 -4.95631465 0 0 0 Z " fill="#446EA7" transform="translate(95,45)"/>
<path d="M0 0 C0.8971875 0.309375 0.8971875 0.309375 1.8125 0.625 C-3.11628121 5.55378121 -13.27208409 8.05412139 -20.1875 8.625 C-22.73326738 8.22972373 -24.7626342 7.55367201 -27.1875 6.625 C-23.73446833 4.50005743 -21.1719037 4.625 -17.1875 4.625 C-15.51209336 3.98061283 -13.84566784 3.31253301 -12.1875 2.625 C-10.99125 2.46 -9.795 2.295 -8.5625 2.125 C-5.14633511 1.6189015 -3.26436882 -0.55960608 0 0 Z " fill="#466A9E" transform="translate(86.1875,43.375)"/>
<path d="M0 0 C0.99 0.33 1.98 0.66 3 1 C2.34 1 1.68 1 1 1 C1 6.28 1 11.56 1 17 C7.98564588 18.56788252 7.98564588 18.56788252 15 20 C14.01 20.33 13.02 20.66 12 21 C12 21.99 12 22.98 12 24 C11.34 24 10.68 24 10 24 C9.34 23.01 8.68 22.02 8 21 C5.94074861 20.27617533 5.94074861 20.27617533 4 20 C3.67 21.65 3.34 23.3 3 25 C1 24 1 24 0 21 C-0.08143855 19.37280518 -0.1075302 17.74248281 -0.09765625 16.11328125 C-0.09443359 15.17548828 -0.09121094 14.23769531 -0.08789062 13.27148438 C-0.07532227 11.80678711 -0.07532227 11.80678711 -0.0625 10.3125 C-0.05798828 9.32443359 -0.05347656 8.33636719 -0.04882812 7.31835938 C-0.03704303 4.87884526 -0.02059011 2.43945311 0 0 Z " fill="#BBACDC" transform="translate(37,44)"/>
<path d="M0 0 C0 0.99 0 1.98 0 3 C-1.98 3.33 -3.96 3.66 -6 4 C-6 9.61 -6 15.22 -6 21 C-6.99 21.33 -7.98 21.66 -9 22 C-9.05394705 19.39555652 -9.09364469 16.79223002 -9.125 14.1875 C-9.14175781 13.44951172 -9.15851563 12.71152344 -9.17578125 11.95117188 C-9.21074628 8.08753574 -9.19397555 6.29096332 -7 3 C-2.55555556 0 -2.55555556 0 0 0 Z " fill="#164287" transform="translate(129,28)"/>
<path d="M0 0 C3.96 0.33 7.92 0.66 12 1 C10.68 2.32 9.36 3.64 8 5 C7.01 5 6.02 5 5 5 C4.67 5.99 4.34 6.98 4 8 C0.4375 9.1875 0.4375 9.1875 -3 10 C-2.690625 9.4225 -2.38125 8.845 -2.0625 8.25 C-0.75540822 5.48204095 0 3.06638853 0 0 Z " fill="#1C519D" transform="translate(117,26)"/>
<path d="M0 0 C1.2065625 0.0309375 1.2065625 0.0309375 2.4375 0.0625 C3.4375 3.0625 3.4375 3.0625 2.5078125 6.22265625 C1.31610494 10.49801585 1.20796619 14.10555951 1.3125 18.5 C1.32603516 19.59731445 1.32603516 19.59731445 1.33984375 20.71679688 C1.36313847 22.49884298 1.3989981 24.28071759 1.4375 26.0625 C0.7775 26.3925 0.1175 26.7225 -0.5625 27.0625 C-1.75695794 21.66531966 -1.48294183 16.65125569 -1.125 11.1875 C-1.07279297 10.30835938 -1.02058594 9.42921875 -0.96679688 8.5234375 C-0.83802439 6.36942501 -0.70108537 4.21590341 -0.5625 2.0625 C-1.5525 1.7325 -2.5425 1.4025 -3.5625 1.0625 C-2.5625 0.0625 -2.5625 0.0625 0 0 Z " fill="#3F669B" transform="translate(31.5625,41.9375)"/>
<path d="M0 0 C1.70884005 1.62339805 3.37446717 3.29319053 5 5 C5 5.66 5 6.32 5 7 C12.07555499 10.0017506 18.37048445 10.34855655 26 10 C25.67 10.66 25.34 11.32 25 12 C9.69080861 12.57329843 9.69080861 12.57329843 4 9 C3.67 8.01 3.34 7.02 3 6 C2.34 6 1.68 6 1 6 C0.67 4.02 0.34 2.04 0 0 Z " fill="#CBA7D5" transform="translate(49,68)"/>
<path d="M0 0 C6.54955571 1.48291827 12.72318367 3.62311735 19 6 C19 6.33 19 6.66 19 7 C13.5814234 7.22577402 9.22512279 6.46670113 4 5 C4 4.34 4 3.68 4 3 C2.68 2.34 1.36 1.68 0 1 C0 0.67 0 0.34 0 0 Z " fill="#406CA2" transform="translate(43,46)"/>
<path d="M0 0 C-0.33 0.99 -0.66 1.98 -1 3 C-7.73742646 3.11044961 -14.29980211 2.70132913 -21 2 C-21 1.34 -21 0.68 -21 0 C-19.41058594 0.01740234 -19.41058594 0.01740234 -17.7890625 0.03515625 C-16.40104342 0.04453476 -15.01302245 0.05363489 -13.625 0.0625 C-12.57699219 0.07506836 -12.57699219 0.07506836 -11.5078125 0.08789062 C-7.20335464 0.10858513 -4.07721992 -1.22316597 0 0 Z " fill="#325997" transform="translate(79,93)"/>
<path d="M0 0 C0.99 0 1.98 0 3 0 C3 2.64 3 5.28 3 8 C1.68 8.33 0.36 8.66 -1 9 C-3 6 -3 6 -2.75 3.9375 C-2 2 -2 2 0 0 Z " fill="#CDA4DA" transform="translate(27,90)"/>
<path d="M0 0 C7.12647031 1.70022388 14.0834212 3.57919742 21 6 C19.203125 7.0546875 19.203125 7.0546875 17 8 C13.75 7.125 13.75 7.125 11 6 C11 5.34 11 4.68 11 4 C9.6696875 4.061875 9.6696875 4.061875 8.3125 4.125 C5.02722987 4.00102754 2.94550705 3.38612096 0 2 C0 1.34 0 0.68 0 0 Z " fill="#4E72A7" transform="translate(78,11)"/>
<path d="M0 0 C0.66 0.33 1.32 0.66 2 1 C1.01 2.32 0.02 3.64 -1 5 C0.83700789 5.77242269 0.83700789 5.77242269 3 6 C4.77190909 4.64555699 4.77190909 4.64555699 6 3 C6.33 4.32 6.66 5.64 7 7 C4.6875 8.5625 4.6875 8.5625 2 10 C1.01 9.67 0.02 9.34 -1 9 C-0.67 8.01 -0.34 7.02 0 6 C-0.66 6 -1.32 6 -2 6 C-1.125 1.125 -1.125 1.125 0 0 Z " fill="#C99DD8" transform="translate(78,76)"/>
<path d="M0 0 C0.33 0 0.66 0 1 0 C1.05807043 3.10408807 1.09361914 6.2080364 1.125 9.3125 C1.14175781 10.19357422 1.15851563 11.07464844 1.17578125 11.98242188 C1.18222656 12.82998047 1.18867187 13.67753906 1.1953125 14.55078125 C1.20578613 15.33106689 1.21625977 16.11135254 1.22705078 16.9152832 C1 19 1 19 -1 22 C-1 21.34 -1 20.68 -1 20 C-1.66 19.67 -2.32 19.34 -3 19 C-2.690625 18.0925 -2.38125 17.185 -2.0625 16.25 C-0.52310987 10.95493464 -0.34179698 5.47774637 0 0 Z " fill="#47619A" transform="translate(102,53)"/>
<path d="M0 0 C1.65 0 3.3 0 5 0 C3.68 0.33 2.36 0.66 1 1 C1 4.96 1 8.92 1 13 C1.99 13 2.98 13 4 13 C4.33 13.99 4.66 14.98 5 16 C5.99 16.66 6.98 17.32 8 18 C5.23723823 17.47731534 2.6739124 16.89130413 0 16 C0 10.72 0 5.44 0 0 Z " fill="#344F8D" transform="translate(38,45)"/>
<path d="M0 0 C2.475 0.495 2.475 0.495 5 1 C3.85079464 5.59682146 2.90408342 8.12788877 0 12 C0 8.04 0 4.08 0 0 Z " fill="#07439B" transform="translate(39,46)"/>
<path d="M0 0 C4.875 1.75 4.875 1.75 6 4 C8.01669827 5.13350534 8.01669827 5.13350534 10 6 C4.87160006 7.81975482 0.82315618 5.8599099 -4 4 C-4 3.67 -4 3.34 -4 3 C-2.35 3 -0.7 3 1 3 C0.67 2.01 0.34 1.02 0 0 Z " fill="#3765A6" transform="translate(13,29)"/>
<path d="M0 0 C1.48418893 2.35534331 2.08599522 3.496068 1.609375 6.2890625 C1.32578125 7.05992188 1.0421875 7.83078125 0.75 8.625 C0.47671875 9.40101562 0.2034375 10.17703125 -0.078125 10.9765625 C-1 13 -1 13 -3 15 C-3 13.35 -3 11.7 -3 10 C-2.34 10 -1.68 10 -1 10 C-1 9.34 -1 8.68 -1 8 C-1.99 7.67 -2.98 7.34 -4 7 C-3.34 6.67 -2.68 6.34 -2 6 C-1.27306096 4.02111039 -0.60183749 2.02045442 0 0 Z " fill="#375FA4" transform="translate(111,69)"/>
<path d="M0 0 C2 2 2 2 2.1953125 4.3828125 C2.17210938 5.28773437 2.14890625 6.19265625 2.125 7.125 C2.10695313 8.03507812 2.08890625 8.94515625 2.0703125 9.8828125 C2.03550781 10.93082031 2.03550781 10.93082031 2 12 C1.01 11.67 0.02 11.34 -1 11 C-1.02688151 9.35425434 -1.04634123 7.70838587 -1.0625 6.0625 C-1.07410156 5.14597656 -1.08570312 4.22945312 -1.09765625 3.28515625 C-1 1 -1 1 0 0 Z " fill="#0945A6" transform="translate(121,53)"/>
<path d="M0 0 C1.67542976 0.28604898 3.34385343 0.61781233 5 1 C5.33 1.99 5.66 2.98 6 4 C4.73392393 4.53229326 3.46189588 5.05044544 2.1875 5.5625 C1.47980469 5.85253906 0.77210937 6.14257812 0.04296875 6.44140625 C-2 7 -2 7 -5 6 C-4.67 5.34 -4.34 4.68 -4 4 C-2.68 4 -1.36 4 0 4 C-0.33 3.01 -0.66 2.02 -1 1 C-0.67 0.67 -0.34 0.34 0 0 Z " fill="#3F69AB" transform="translate(95,37)"/>
<path d="M0 0 C0.33 1.32 0.66 2.64 1 4 C2.32 4.33 3.64 4.66 5 5 C3.25 6.5625 3.25 6.5625 1 8 C-1.25 7.6875 -1.25 7.6875 -3 7 C-1.125 1.125 -1.125 1.125 0 0 Z " fill="#0F4B97" transform="translate(102,32)"/>
<path d="M0 0 C0.66 0 1.32 0 2 0 C2.41879658 1.4100489 2.80921039 2.82854812 3.1875 4.25 C3.51814453 5.43335937 3.51814453 5.43335937 3.85546875 6.640625 C4 9 4 9 1 13 C0.67 8.71 0.34 4.42 0 0 Z " fill="#4E70A1" transform="translate(32,68)"/>
<path d="M0 0 C1 2 1 2 -0.125 5.5 C-2 9 -2 9 -4.6875 10.4375 C-5.450625 10.623125 -6.21375 10.80875 -7 11 C-5.35 8.03 -3.7 5.06 -2 2 C-2.99 1.67 -3.98 1.34 -5 1 C-3.35 0.67 -1.7 0.34 0 0 Z " fill="#C8B1D9" transform="translate(87,63)"/>
<path d="M0 0 C0.66 0.33 1.32 0.66 2 1 C2 6.94 2 12.88 2 19 C1.34 19.33 0.68 19.66 0 20 C-0.95946595 15.38034912 -0.96102244 11.31870875 -0.5625 6.625 C-0.46066406 5.37976562 -0.35882812 4.13453125 -0.25390625 2.8515625 C-0.17011719 1.91054688 -0.08632813 0.96953125 0 0 Z " fill="#315990" transform="translate(31,49)"/>
<path d="M0 0 C-1.41519715 2.0343459 -2.54982123 2.90410393 -4.98046875 3.421875 C-6.98176954 3.66273952 -8.9909944 3.83532741 -11 4 C-11 3.01 -11 2.02 -11 1 C-7.32589215 -0.17571451 -3.83070817 -0.07366746 0 0 Z " fill="#265598" transform="translate(61,11)"/>
<path d="M0 0 C1.32 0.33 2.64 0.66 4 1 C0.04 4.465 0.04 4.465 -4 8 C-4.66 7.67 -5.32 7.34 -6 7 C-4.6875 5 -4.6875 5 -3 3 C-2.01 3 -1.02 3 0 3 C0 2.01 0 1.02 0 0 Z " fill="#678AB4" transform="translate(98,92)"/>
<path d="M0 0 C0.33 0 0.66 0 1 0 C0.67 2.64 0.34 5.28 0 8 C-1.65 8.66 -3.3 9.32 -5 10 C-5 9.34 -5 8.68 -5 8 C-4.34 8 -3.68 8 -3 8 C-1.92474806 5.34771188 -0.90543849 2.71631546 0 0 Z " fill="#4B71A6" transform="translate(98,73)"/>
<path d="M0 0 C0.99 0.33 1.98 0.66 3 1 C3.33 2.65 3.66 4.3 4 6 C2.35 5.67 0.7 5.34 -1 5 C-0.67 3.35 -0.34 1.7 0 0 Z " fill="#D09AEA" transform="translate(88,68)"/>
<path d="M0 0 C0.33 0.66 0.66 1.32 1 2 C-3.00200378 3.60080151 -6.04556236 2.29279692 -10 1 C-6.44020218 -1.32756011 -4.04793886 -1.07945036 0 0 Z " fill="#4F76AA" transform="translate(69,49)"/>
<path d="M0 0 C0 0.66 0 1.32 0 2 C-0.99 2.495 -0.99 2.495 -2 3 C-1.34 3.66 -0.68 4.32 0 5 C-3.75 6.125 -3.75 6.125 -6 5 C-6 3.68 -6 2.36 -6 1 C-3.92446352 0.4465236 -2.15634036 0 0 0 Z " fill="#3F6598" transform="translate(11,26)"/>
<path d="M0 0 C-1.1875 2 -1.1875 2 -3 4 C-5.6875 4.25 -5.6875 4.25 -8 4 C-7.67 3.01 -7.34 2.02 -7 1 C-4.53721199 -0.231394 -2.7204945 -0.07159196 0 0 Z " fill="#0C4494" transform="translate(49,15)"/>
<path d="M0 0 C3.85645121 -0.22036864 6.49223216 0.39644899 10 2 C8 4 8 4 4.875 4.125 C3.92625 4.08375 2.9775 4.0425 2 4 C2.66 3.67 3.32 3.34 4 3 C2.68 2.01 1.36 1.02 0 0 Z " fill="#5778AF" transform="translate(48,90)"/>
<path d="M0 0 C0.99 0.33 1.98 0.66 3 1 C0.525 4.465 0.525 4.465 -2 8 C-2.33 6.68 -2.66 5.36 -3 4 C-2.01 3.67 -1.02 3.34 0 3 C0 2.01 0 1.02 0 0 Z " fill="#5576A5" transform="translate(105,84)"/>
<path d="M0 0 C-0.66 0 -1.32 0 -2 0 C-2 0.99 -2 1.98 -2 3 C-3.98 3 -5.96 3 -8 3 C-8 2.34 -8 1.68 -8 1 C-3.375 -1.125 -3.375 -1.125 0 0 Z " fill="#2D599A" transform="translate(77,47)"/>
<path d="M0 0 C-1.23884319 0.72767003 -2.49168341 1.43154815 -3.75 2.125 C-4.79414063 2.71667969 -4.79414063 2.71667969 -5.859375 3.3203125 C-8 4 -8 4 -10.265625 3.1171875 C-10.83796875 2.74851562 -11.4103125 2.37984375 -12 2 C-10.56656 1.46809459 -9.12804633 0.94984742 -7.6875 0.4375 C-6.48673828 0.00244141 -6.48673828 0.00244141 -5.26171875 -0.44140625 C-3 -1 -3 -1 0 0 Z " fill="#5D79AF" transform="translate(23,23)"/>
<path d="M0 0 C0.66 0.66 1.32 1.32 2 2 C-1.32307692 5.93846154 -1.32307692 5.93846154 -4.75 6.25 C-5.4925 6.1675 -6.235 6.085 -7 6 C-6.21625 5.38125 -5.4325 4.7625 -4.625 4.125 C-2.03162353 2.10141339 -2.03162353 2.10141339 0 0 Z " fill="#CFB5D7" transform="translate(36,95)"/>
<path d="M0 0 C0.625 1.875 0.625 1.875 1 4 C-1 6 -1 6 -3.625 6.125 C-4.40875 6.08375 -5.1925 6.0425 -6 6 C-4.71034824 4.62437146 -3.37310707 3.29233607 -2 2 C-1.34 2 -0.68 2 0 2 C0 1.34 0 0.68 0 0 Z " fill="#5A77AC" transform="translate(91,83)"/>
<path d="M0 0 C-2.97 2.475 -2.97 2.475 -6 5 C-6 3.35 -6 1.7 -6 0 C-3 -1 -3 -1 0 0 Z " fill="#D8B2DE" transform="translate(91,78)"/>
<path d="M0 0 C0.99 0.33 1.98 0.66 3 1 C1.6875 2.5 1.6875 2.5 0 4 C-0.99 4 -1.98 4 -3 4 C-3.33 4.66 -3.66 5.32 -4 6 C-4 5.01 -4 4.02 -4 3 C-3.34 3 -2.68 3 -2 3 C-2 2.34 -2 1.68 -2 1 C-1.34 0.67 -0.68 0.34 0 0 Z " fill="#54709E" transform="translate(44,93)"/>
<path d="M0 0 C0 0.66 0 1.32 0 2 C-1.98 2.99 -3.96 3.98 -6 5 C-6.33 3.68 -6.66 2.36 -7 1 C-4.53721199 -0.231394 -2.7204945 -0.07159196 0 0 Z " fill="#265496" transform="translate(52,91)"/>
<path d="M0 0 C0.99 0 1.98 0 3 0 C2.67 2.31 2.34 4.62 2 7 C1.67 6.34 1.34 5.68 1 5 C0.34 4.67 -0.32 4.34 -1 4 C-0.67 2.68 -0.34 1.36 0 0 Z " fill="#3762A0" transform="translate(100,68)"/>
<path d="M0 0 C0.66 0 1.32 0 2 0 C2.33 1.65 2.66 3.3 3 5 C1.68 5 0.36 5 -1 5 C-0.67 3.35 -0.34 1.7 0 0 Z " fill="#D4A7DC" transform="translate(40,67)"/>
<path d="M0 0 C0 1.65 0 3.3 0 5 C-0.33 4.34 -0.66 3.68 -1 3 C-3.31 3.33 -5.62 3.66 -8 4 C-2 0 -2 0 0 0 Z " fill="#AB8FC8" transform="translate(96,60)"/>
</svg>
